<svg xmlns="http://www.w3.org/2000/svg" viewBox="0 0 174.8 269"><defs><style>.cls-1{fill:#f8dabc;}.cls-2{fill:#d8c078;}.cls-3{fill:#f2da91;}.cls-4{fill:#edbc9b;}</style></defs><title>ivan-avatar</title><g id="Ivan_Avatar" data-name="Ivan Avatar"><path class="cls-1" d="M52,197.9c1.6,5,3.1,10,5.2,14.9,3.4,7.8,7.2,15.3,10.9,22.9l10.1,22,14.2-7,50.5-73.8c-1.9-1.2-4.9-2.4-5.8-4.6-3.5-8.9-2.4-18.8-2.1-28.1l13.6-51.4-.9-3-1-16.3,3.1-8.9,3.2-5.3,1.7-4.9-5.7-10.4L144,36l-6.8-8.4-10.6-5.3-10.7-5.1-8.3-2.9-10.3-.5-19.6,2L56.2,27.5l-22,11.6L21.9,57,17,83.7l4.4,42"/><polygon class="cls-1" points="42.2 194.4 54.4 198.7 63.7 200.2 77.1 196.7 91.7 189.8 107.4 179.3 119.1 166.7 123.8 153.3 126.7 141.2 128 125 129.5 104.6 126.9 82.4 123 59.5 115.1 51.2 109.6 46.2 101.8 45 91.6 46.1 78.2 46.9 70.5 42.9 63.4 38.4 55.3 38.7 42.8 42.3 32.4 49.8 27.1 59.2 24.4 66.8 22 77 21.7 86.5 21.3 94.1 20.9 101 20.5 111.1 21.5 127.9 20.4 143.7 21.1 150.6 24.9 161.8 29 171.2 42.2 194.4"/><path class="cls-2" d="M30.4,90.8c3-.4,7.1-1.6,10-.5s5,1.6,7.2,3.1l4,2.8C47.5,94.8,43.6,93,39.4,92,36.8,91.4,33,90.5,30.4,90.8Z"/><path class="cls-2" d="M73.4,94.4l6-2.8c3.9-1.8,8.3-2.1,12.5-2.5h1.4c3,.1,5.7,2.7,8.7,2.8l-10-.3c-3.1,0-6.5-.3-9.5.3s-3.7,1-5.5,1.5A17.2,17.2,0,0,0,73.4,94.4Z"/><path class="cls-3" d="M21.2,133.9c2.7,7.7,5.1,15.5,8.5,23a97.2,97.2,0,0,0,7.5,12.6c2.7,4.1,4.6,7.9,8.6,11,.3.3,3.5-2.4,3.8-2.6s3-3.3,5.1-3.1,6.4,0,9.2,2A38.6,38.6,0,0,0,74.7,182l.9.2,1-.3c3.6-1.5,7.2-2.7,10.4-4.9,8.8-5.9,17.6-11.6,25.8-18.3,3.4-2.7,4.8-6.8,6.7-10.6l13-34.6c-1.9,11-3.4,22.2-5.9,33.1-1.6,7-4.1,13.6-6.5,20.3l-9.7,10.3c-7.4,7.8-17.9,13.1-27.5,17.4a79,79,0,0,1-17.4,5.7l-1.9.2a39,39,0,0,1-8-1.3,98.3,98.3,0,0,1-11.6-3.6c-4.4-1.6-6.1-7.4-8.3-11.2s-5.1-9.4-7.4-14.3-3.3-8.5-5-12.8-3.6-9.3-3.4-14.2c.1-1.9.5-3.8.8-5.7A15.6,15.6,0,0,1,21.2,133.9Z"/><path class="cls-3" d="M31.5,153.3a8.6,8.6,0,0,1,1.3-2.8c1.8-3,3.5-4.6,6.9-5.7a37.8,37.8,0,0,1,11.5-1.9,6.6,6.6,0,0,1,1.8.2,6.4,6.4,0,0,1,1.6.7l2.4,1.7c-3.2-1.4-6.5-1.2-9.9-.9s-6.7,1.9-10,3.1-4.2,5.9-5.7,8.7c.5-.9,0-1.8,0-2.7Z"/><path class="cls-3" d="M61.8,145.3c1.5-.8,3.4-2.6,5.1-3s6.9.5,9.9,1l8.7,1.6c1.2.2,2.7.2,3.7.9s2.2,2.3,3.1,3.3a19.5,19.5,0,0,1,3.5,6.2c-.5-1.3-2.5-2.4-3.6-3.3-4.1-3.6-7.7-5.9-13.2-6.8a51.6,51.6,0,0,0-14.5-.1A9.5,9.5,0,0,0,61.8,145.3Z"/><path class="cls-2" d="M130.2,120.9c.1-18.6-2.3-37.2-4.6-55.7a20.1,20.1,0,0,0-1.8-7,20.1,20.1,0,0,0-3.6-4.5c-4.4-4.4-9.1-9.1-15.1-10.4-9.2-2.1-19.2,3.9-28,.5-3.3-1.2-6-3.7-9.2-5.1s-10.1-1.9-15.1-1c-8.6,1.6-17.2,5.5-22.5,12.5a40.8,40.8,0,0,0-6.4,13.5c-4.4,14.8-4.6,30.4-4.7,45.8.1-8.6-3.5-17.3-2.9-25.9a107.4,107.4,0,0,1,4.6-24.2c2.3-7.3,6-14.2,11.8-19.2S42.8,33.7,48.2,31C59,25.4,69.4,18.8,81.2,15.5a60.2,60.2,0,0,1,72.1,36.3,7.2,7.2,0,0,1,.7,3,8.5,8.5,0,0,1-1.5,3.6,42.7,42.7,0,0,0-3.8,33.9,6.3,6.3,0,0,1,.5,2.6,5.9,5.9,0,0,1-1.4,2.7Z"/><path class="cls-1" d="M128.1,141.2c4.8.6,10,1.4,14.1-1.7a27.7,27.7,0,0,0,8.2-10c1.1-2.3,1.6-4.9,2.3-7.3s1.7-5.2,2.4-7.9,1-5.5,1.5-8.3.9-4.5.2-6.6-3-5.6-5.9-6.1-5.6-.3-7.1,1.5c-7.8,9.4-10.8,22-14.7,33.3"/><path class="cls-4" d="M58.4,97.6c.7,1.7-.7,5.9-1.1,7.7s-1.1,5.4-1.9,8.1a159.7,159.7,0,0,1-5.6,15.1c-1.3,3.1.9,6,3.5,7.6s6.7,2.7,10.1.7,6.3-.4,9.8.1Z"/><polygon class="cls-2" points="147.1 47.5 158.2 57.3 143.4 47.5 147.1 47.5"/><polygon class="cls-2" points="149.3 52.4 155.8 61.1 143.4 50.7 149.3 52.4"/><polygon class="cls-2" points="147.1 57.3 157.3 52.4 144.3 57.3 147.1 57.3"/><polygon class="cls-2" points="70.3 35.4 47.9 40.8 79.5 35.4 70.3 35.4"/><path class="cls-2" d="M57,35.4c-.3,0-17.9,9-17.9,9L54.9,34.3Z"/><polygon class="cls-2" points="70.9 38.1 54.4 37.5 72.5 40.8 70.9 38.1"/><path class="cls-2" d="M78.8,41.7H68.1l12,1Z"/><polygon class="cls-2" points="91.1 42.6 83.6 45.8 95.8 42.1 91.1 42.6"/><polygon class="cls-2" points="114.5 46.7 121.5 60.3 116.3 44.4 114.5 46.7"/><path class="cls-2" d="M128.5,81.9c0,.5-1.8,14.4-1.8,14.4l3.6-15.7Z"/><path class="cls-2" d="M130.3,93.5l-3.6,12.7,5.2-12.7Z"/><polygon class="cls-2" points="130.3 103.1 126.7 114.4 133 99.8 130.3 103.1"/><polygon class="cls-2" points="150.8 49.1 157.3 54.8 147.7 48.6 150.8 49.1"/><polygon class="cls-2" points="152.4 51.2 159.1 57.3 150.8 53 152.4 51.2"/><polygon class="cls-2" points="151.3 49.5 156.6 58.7 150.8 54.1 151.3 49.5"/><polygon class="cls-2" points="153.3 54.8 154.9 59.3 151.4 54.6 153.3 54.8"/><polygon class="cls-2" points="153 55.9 153.9 61.9 145.9 54.1 153 55.9"/><polygon class="cls-2" points="150.8 58 154.3 64.7 149.3 59.7 150.8 58"/><polygon class="cls-2" points="150.8 59.8 151.8 64.7 148 56.2 150.8 59.8"/><polygon class="cls-2" points="149.6 60.4 150.8 67.7 147.4 61.9 149.6 60.4"/><polygon class="cls-2" points="146.9 71.1 154.3 56.4 148.8 59.1 146.9 71.1"/><polygon class="cls-2" points="148.5 66.6 148.8 72.7 146.1 65.8 148.5 66.6"/><polygon class="cls-2" points="146.1 75.1 149.1 82 144.9 74.2 146.1 75.1"/><polygon class="cls-2" points="146.4 76.4 148.5 83.1 144 76.4 146.4 76.4"/><polygon class="cls-2" points="146.4 79 148.8 85.7 144.3 78.4 146.4 79"/><polygon class="cls-2" points="146.9 81.6 148.2 87.6 144 78.1 146.9 81.6"/><polygon class="cls-2" points="148 89.1 147 83.3 146.4 88.4 148 89.1"/><path class="cls-2" d="M135.9,32.1l9.9,6.5c7.7,5.1,17.4,7.2,26.5,7.8-1.7-.1-3.3.6-4.9.9l-6.1,1.2c-8.1,1.2-16.2.7-24.4,0l-8.8-5.9Z"/><path class="cls-2" d="M37.8,40.8c-1.4.7-2.9.4-4.4.5s-6,1-8.2.1-2.7-2.2-3.7-3.3-2.1-4.1-3.2-4.7c3.3,2,6.3,4.1,10.1,5Z"/><path class="cls-2" d="M41.1,39.5c-.4.4-12.6.8-12.6.8l-5.3-4.9L21.6,32l6.8,4.1Z"/><path class="cls-2" d="M40,39.2c-1.2.8-3.7-.2-4.9-.5s-4.5-.6-6.4-1.4-2.9-2.9-4.2-4.7a13.2,13.2,0,0,1-1.8-5.1c.2,1,3.1,3.3,3.9,4,2.3,2.1,4.9,3.3,7.6,4.7C34.8,36.5,39.6,39.5,40,39.2Z"/><path class="cls-2" d="M43.1,38.8c-.9,1.1-4.4-.3-5.3-.5s-7.4,0-9-2.1a4.2,4.2,0,0,1-.6-1.3A53.6,53.6,0,0,1,26,17.2c-.1,1.9,2.6,5.8,3.3,7.3S42.2,40.1,43.1,38.8Z"/><path class="cls-2" d="M22,70.3c0-.7-1-.7-1.2-.8s-1.6-1.5-2.3-.7l-.4.5a48,48,0,0,0-3.6,8.1,15.3,15.3,0,0,1,2-2.9C17,73.9,22,69.5,22,70.3Z"/><path class="cls-2" d="M19.8,87.2c-.3-.6-1.2-.2-1.4-.2s-2-.7-2.4.3a2.7,2.7,0,0,0-.1.6,48,48,0,0,0,.1,8.9,15.3,15.3,0,0,1,.6-3.5C16.8,92.5,19.5,86.4,19.8,87.2Z"/><path class="cls-2" d="M41.4,36.4c-.9.4-3.8-1.9-4.5-2.3s-6.7-3.1-7.4-5a2.5,2.5,0,0,1-.1-1A45.5,45.5,0,0,1,32,13.9c-.4,1.2.7,4.8,1,6.2a24,24,0,0,0,3.4,8.4C38.2,31.1,40.4,33.4,41.4,36.4Z"/><path class="cls-2" d="M43.1,30.2c-.9.2-3.4-2.6-4.1-3.2l-5.6-5.3a1.4,1.4,0,0,1-.4-.5,1.4,1.4,0,0,1,0-.8c.6-2.6,1.1-5.4,1.9-8a28.6,28.6,0,0,1,3.2-6.1c-.1,3.3-.6,6.6.1,9.9C38.5,17.3,42.3,30.4,43.1,30.2Z"/><path class="cls-2" d="M59.3,20.4,57,15.6c-.1-.2,4.5-3.5,4.9-3.8a18.7,18.7,0,0,0,3.7-4.9,6.1,6.1,0,0,1-.4,3.3,32.1,32.1,0,0,0-1.9,3.7,24.9,24.9,0,0,1-1.2,3.4Z"/><path class="cls-2" d="M40.4,37.5,33,34l-2-8.8,3.5-5.9c3-2.6,6.1-5.2,9-8s3.1-5.4,3.6-9c1.8,5.3.1,10.2-1.3,15.3L42.4,30C42.3,30.5,40.2,37.4,40.4,37.5Z"/><path class="cls-2" d="M45.8,38l-7.1-3.9-1.5-8.9,3.9-5.7c3.2-2.5,6.4-4.8,9.4-7.4S54,6.8,54.7,3.3c1.4,5.4-.5,10.2-2.2,15.2L48.3,30.7C48.2,31.1,45.7,37.9,45.8,38Z"/><path class="cls-2" d="M51.5,36.7l-6.9-4.3-1-9,4.2-5.4c3.3-2.3,6.7-4.4,9.9-6.9s3.8-5,4.6-8.5c1.1,5.4-1.2,10.2-3.1,15.1L54.4,29.5C54.2,29.9,51.3,36.6,51.5,36.7Z"/><path class="cls-2" d="M58.9,35.8l-6.3-5.2.2-9.1,4.9-4.9c3.6-1.8,7.2-3.5,10.7-5.5s4.4-4.5,5.7-7.8c.4,5.5-2.5,9.9-5.1,14.5L62.8,29.1C62.5,29.5,58.8,35.7,58.9,35.8Z"/><path class="cls-2" d="M65.4,37.4l-6.9-7.1,1.4-11L66.5,14c4.6-1.8,9.2-3.3,13.7-5.3S86.1,3.9,88.1,0c-.2,6.8-4.3,11.7-8,17L71,29.7C70.6,30.2,65.2,37.2,65.4,37.4Z"/><path class="cls-2" d="M72.8,38.4l-6.2-7.8L69,19.9l7-4.6c4.7-1.3,9.5-2.5,14.1-4S96.5,7,98.9,3.3C98,10,93.5,14.6,89.3,19.5L79,31.3C78.6,31.7,72.6,38.2,72.8,38.4Z"/><path class="cls-2" d="M85.1,34.1l-3.8-9.2,5.4-9.7,8.1-2.5c4.9.1,9.8.3,14.7.1s7.3-2.3,10.6-5.2c-2.7,6.2-8.3,9.3-13.7,12.8L93.1,28.9C92.6,29.3,85,33.8,85.1,34.1Z"/><path class="cls-2" d="M103,34.6l-3.3-9.4,5.9-9.3,8.2-2c4.9.3,9.8.9,14.7.9s7.4-1.9,10.9-4.6c-3.1,6-8.8,8.9-14.4,12L111.3,30C110.8,30.2,102.9,34.4,103,34.6Z"/><path class="cls-2" d="M115.1,36l-1.8-9.8,7.3-8.3,8.4-.7c4.8,1.1,9.5,2.3,14.3,3.2s7.6-.8,11.4-2.9c-4,5.5-10.1,7.4-16.1,9.7l-14.7,5.5C123.4,32.9,115,35.8,115.1,36Z"/><path class="cls-2" d="M114.5,35.1l1.6-9.8,9.7-5.3,8.1,2.2c4.1,2.6,8.2,5.5,12.4,7.9s7.4,1.9,11.7,1.2c-5.6,3.8-12,3.5-18.5,3.6L124,35C123.4,35,114.5,34.8,114.5,35.1Z"/><path class="cls-2" d="M120.8,42.2l1.6-9.8,9.7-5.3,8.1,2.2c4.1,2.6,8.2,5.5,12.4,7.9s7.4,1.9,11.7,1.2c-5.6,3.8-12,3.5-18.5,3.6l-15.7.2C129.7,42.1,120.9,41.9,120.8,42.2Z"/><polygon class="cls-2" points="93.2 11.5 99.7 10.2 89.7 14.7 93.2 11.5"/><polygon class="cls-2" points="79.5 14.7 87.4 10.2 82.7 14.7 79.5 14.7"/><path class="cls-2" d="M142.6,22.4c.3.5,2,.9,2.6,1.1a6.9,6.9,0,0,0,3.4,1.1c-.9.1-1.6.6-2.5.2l-1.9-.8C143.3,23.7,143.1,23.2,142.6,22.4Z"/><polygon class="cls-2" points="144.3 23.7 147 25.9 141.3 23.3 144.3 23.7"/><polygon class="cls-2" points="138 27.8 144.9 25.9 138.4 26.6 138 27.8"/><path class="cls-2" d="M64.7,17.7H64l-4.2-.5-8.5.2-8.1,2L39.3,21l-4.2,3.7-3.2,5.6-.2,5.3.9,1.9-.9,3.5-.9,2.2-.2,3,4-2.4,1.8-.6c-.3.1-.7,4.6-.7,5A14.8,14.8,0,0,0,36.9,53c-.1-.1.6-1.2.7-1.6s.7,2,1.2,2.9l.4.7a16.1,16.1,0,0,0,2.3,2.7,11.7,11.7,0,0,0,2.8,2.5,39.2,39.2,0,0,0,4.6,2.1L52,63.6l2.8.9c-.2-.1-.5-.9-.6-1.1l-1-1.7A21.7,21.7,0,0,1,51.1,57c.1.3,1.2.8,1.4,1L54,59l2.7,1.9a39.2,39.2,0,0,0,8,4l2.4.7c-.4-.1-.6-.8-.8-1l-1.2-1.3c-1.3-1.3-2.8-2.3-4.2-3.6a9.7,9.7,0,0,0,2.3,1.1l2.4,1.2,5.1,2.4a52.4,52.4,0,0,0,5.6,1.9l-1.9-4.5c-.8-2-1.5-4.1-2.2-6.2a13.6,13.6,0,0,1-.4-2.2c.1.3,1.1,1.1,1.4,1.3a21.3,21.3,0,0,0,6.2,4.1,23.5,23.5,0,0,0,5.8,1.3l-2.4-3.2a4,4,0,0,0,3.8,1.2c1.2-.4,1.2-1,1.1-2.1l-.2-3.1-.3-4.9.6-.7,1.6-.2h1.2l1.4.7c-.2-.1-.4-1.3-.5-1.5L90.8,44a12.2,12.2,0,0,0-1.4-2.3l-2.3-2.2h1.4l1-.6.6-1.2-.4-1.2-1.4-1.2-1.6-.4,2.4-1.3-1.5-1.1L83.6,30l-1.5-1.7V27.2l.7-.8,1.5-.4.9-.3-2.6-1.5-3.7-1.3-3.9-.8-3.8-.4H67.3l-3.8.2-1.9.2Z"/><path class="cls-2" d="M74.2,44l5.3,7.7L84,53.5c2.2.9,4.7,2.3,7.1,2.4l8.7.5a3.5,3.5,0,0,1-.9-.4l-2.4-1.1c-4.2-2-8.5-3.8-12.8-5.6L80,44.4l-1.5-3.7Z"/><path class="cls-2" d="M78.9,42.3l8.6,9.6,5.3,1.8a4.1,4.1,0,0,0,1.1,0c2.3.1,4.5.3,6.8.3l3.5-.3a11.7,11.7,0,0,0,3.5-.6l-1-.3-9.8-2.1a16,16,0,0,1-4.3-1.4c-1.3-.7-2.3-1.7-3.5-2.5l-2-1.4c-.2-.1-.7-.4-.9-.6l-2.2-3.7Z"/><path class="cls-2" d="M85.1,35.4c-.4.8,14.5,9.7,14.7,9.8s2.8.7,3.9,1c3.7.9,7,1.6,10.8.5l-7.2,2.1a7.5,7.5,0,0,1-4.1.5A39.3,39.3,0,0,1,94,46.6c-2.9-1.4-5.4-3.3-8.2-4.9Z"/><path class="cls-2" d="M96.9,40.3c1,1.2,2.8,2,4.1,2.8a21,21,0,0,0,6.1,2.7c-1.7.3-4.1,1.3-5.7.3a43.6,43.6,0,0,0-7.3-3.5Z"/><path class="cls-2" d="M20.6,40.6c.2.3,2,.2,2.4.2l4.5.4h1.2c.5-.1,3-.8,3.2-1.3l-3.6,7.8L24.5,52c-.3-2.2-.6-4.5-1-6.7S21.7,42.1,20.6,40.6Z"/><path class="cls-2" d="M15.6,98.8a7.3,7.3,0,0,0,.5-1.1l.9-2.1.2-.6a8.9,8.9,0,0,0,.3-1.7l1.1,2.9.3,2.5-1.7-.5C16.7,98,16.1,98.5,15.6,98.8Z"/><path class="cls-2" d="M16.2,102.8a11.4,11.4,0,0,0,.6-1.3l1.1-2.4.3-.7a14,14,0,0,0,.5-2l.6,3.4v2.9l-1.4-.6C17.3,101.9,16.8,102.4,16.2,102.8Z"/><path class="cls-2" d="M14.5,87.3c.1,0,.8-.9.9-1.1l1.7-2,.5-.6a8.3,8.3,0,0,0,.8-1.9l.8,3.9-.3,3-2.2-1.4A4,4,0,0,0,14.5,87.3Z"/><path class="cls-2" d="M14.5,86.1a6.8,6.8,0,0,0,.7-1.2l1.3-2.3.3-.7a8.3,8.3,0,0,0,.4-2l1.7,3.6.4,3-2.4-.9C16.1,85.4,15.3,85.8,14.5,86.1Z"/><path class="cls-2" d="M14.6,63.8c.2.1,1.5-.7,1.8-.8l3.3-1.5.9-.5c.3-.2,1.8-1.8,1.7-2.2l.7,7-1,4.5c-1.1-1.5-2.2-2.9-3.5-4.3S16,64.5,14.6,63.8Z"/><path class="cls-2" d="M13.7,68.6c.2.1,1.5-.7,1.8-.8l3.3-1.5.9-.5c.3-.2,1.8-1.8,1.7-2.2l.7,7-1,4.5c-1.1-1.5-2.2-2.9-3.5-4.3S15.1,69.2,13.7,68.6Z"/><path class="cls-2" d="M14.1,80.4c.2,0,.8-1,.9-1.1l1.7-2.1.4-.6a6.1,6.1,0,0,0,.5-2L20,78.9l.5,3.3-3.3-1.7A6.5,6.5,0,0,0,14.1,80.4Z"/><path class="cls-2" d="M17.9,59.7c.1.1.8-.4,1-.5l1.8-.9.5-.3c.2-.1.9-1.1.9-1.3l.8,4.1-.3,2.7L20.3,61A6.8,6.8,0,0,0,17.9,59.7Z"/><path class="cls-2" d="M18,53.3c.2.2,1.7-.1,2-.1l3.7-.2,1-.2c.4-.1,2.2-1.2,2.3-1.7l-1.2,7.9-2.2,4.5c-.7-2-1.4-4.1-2.3-6.1S19.2,54.6,18,53.3Z"/><path class="cls-2" d="M19.1,51.6c.2.1,1.2-.6,1.4-.7l2.7-1.4.7-.4c.2-.2,1.5-1.5,1.4-1.9l.5,5.6L25,56.5c-.9-1.1-1.8-2.2-2.7-3.3S20.3,52.1,19.1,51.6Z"/><path class="cls-2" d="M19.4,47.4c.2.1,1.2-.6,1.4-.7l2.7-1.4.7-.4c.2-.2,1.5-1.5,1.4-1.9l.5,5.6-.8,3.7c-.9-1.1-1.8-2.2-2.7-3.3S20.5,47.8,19.4,47.4Z"/></g></svg>