<svg xmlns="http://www.w3.org/2000/svg" viewBox="0 0 204 269"><defs><style>.cls-1{fill:#d8c078;}.cls-2{fill:#f8dabc;}.cls-3{fill:#f2da91;}.cls-4{fill:#edbc9b;}</style></defs><title>jacob-avatar</title><g id="Jacob_Avatar" data-name="Jacob Avatar"><path class="cls-1" d="M104.3,14.8c-11.2.1-22.4.9-33.5,1.7-1,.1-3.6,3.5-4.2,4.2-2.2,2.2-4.7,4.3-6.9,6.5C51.8,34.7,46.1,44.1,38.8,52c-4.8,5.2-10,10.1-13.5,16.2a59.3,59.3,0,0,0-6.5,16.4,62.1,62.1,0,0,0-1.1,7.7c-.2,1.6-1.3,4.9-.7,6.4l4.5,12.6,8,5.3L62.1,124l71-66.5,39.8,36.2c.6.1,2.4.9,3,.6s1.2-4.5,1.4-5.6c1.5-7.9,3.1-16.1,3.6-24.1.3-5.6,0-12.1-2.7-17s-7.1-7.3-11.6-9.8L145.3,26.4c-8.2-4.6-16.3-9.2-25.6-11.1C114.7,14.3,109.5,14.7,104.3,14.8Z"/><path class="cls-2" d="M40.5,136.2c4.4,17.9,9.9,35.7,11.1,54.2a110.9,110.9,0,0,1-1.3,22.9,17.8,17.8,0,0,1-.7,3.1,24.1,24.1,0,0,1-6,8.6l-4.2,3.8,97.2,35.1c-3.1-1.1-1.8-12.2-1.8-14.6.2-7.8,1.1-15.7.8-23.6-.1-4.2,0-8.4,0-12.7,0-1.5,1-11.3.1-11.9Z"/><path class="cls-2" d="M50.9,114.3c-1.4-2.1-3.6-4-5.4-5.9l-.6-.5-.6-.2a12.9,12.9,0,0,0-9.7,2.9c-2.2,1.9-4.3,2.9-4.5,6l-.5,6.9c-.4,5,.9,10.1,2,15a16.9,16.9,0,0,0,.7,2.5,34.3,34.3,0,0,0,5.8,9.1c1.9,2.3,4.3,5.6,7.5,6,1,.1,10.5-1.1,10.6-.8l3.6,15.8,4.8,17,10,12.4,27.1,17.8,14.4,7.2s7.8,1.4,8.7,1.4,18.5-5.8,18.5-5.8l13.6-7.4,7.4-16.4,5.2-23c.9-3.8,1-7.7,1.6-11.6a57.9,57.9,0,0,0,1-15.2c-.5-4.9-2.4-10-2.4-14.9a23.3,23.3,0,0,1,2.7-10c1-2,2.8-3.5,3.8-5.4s.7-7,.7-10.2A76.8,76.8,0,0,0,172,80.8c-1.4-3.8-3.3-7.5-5.1-11.2s-1.8-4.8-3.7-7.1a50.9,50.9,0,0,0-4.7-4.7c-1.3-1.2-2.3-3.1-3.7-4.1a7.4,7.4,0,0,0-2-.8L141.1,49c-4.6-1.5-9.7-1.3-14.5-1.4a132.4,132.4,0,0,0-35.5,3.9q-4.3,1.1-8.6,2.5c-1.6.5-2,.4-2.3,1.9s.7,3.2,1,4.4c.9,3.5,2,7,3.2,10.4s2.9,6.7,2.3,10l-.8,4.6a4.3,4.3,0,0,1-.3,1c-1.5,3.3-6.3,4.2-8.3,7.4-4.4,7-6.6,15.2-10.1,22.7a6.1,6.1,0,0,1-.9,1.4,6.3,6.3,0,0,1-1.2,1c-3,2.1-6.8,5.2-10,1.8C53.5,118.9,52.3,116.4,50.9,114.3Z"/><polygon class="cls-3" points="58.4 122.2 60 137.3 60 158.8 60 171.8 64.9 188.7 75.1 200.4 102.5 218.3 116.2 225.3 124.7 226.7 142.9 220.6 156.2 213.3 163.6 197.2 168.9 174.4 166.6 167.9 161.1 161.8 156.7 155.8 154.2 155.2 155 159.9 158.6 162.6 164.8 170.7 163.3 186.1 157.4 190 150.7 190 140.9 189.3 132.1 186.6 125.4 181.7 121.9 176.5 121.6 171.6 123.2 166.9 129.3 163.4 139.4 160.2 145.7 158.1 147.7 155.3 143.6 151.8 136.6 153.1 125.8 156.1 119.7 159.5 116.1 164.1 112 168.9 105.8 168.5 94.3 156.1 77.8 140.9 71 135.1 68.1 128.4 66.5 121.9 65.5 118.6 58.4 122.2"/><polygon class="cls-1" points="108.9 91.5 119.5 90.6 130 93 136.6 96.7 141.8 100.7 134.3 99.6 128.1 97 120.2 95.6 108.9 91.5"/><polygon class="cls-1" points="160 106.3 167.4 104 171.2 104 174.2 105.1 176.1 107.4 176.1 113.2 174.5 112.8 172.5 110.2 170.2 108.6 167.5 108.6 163.1 108.6 160.8 107.7 160 106.3"/><path class="cls-4" d="M154.6,108.6c-1.1,2.2-.6,5.4.3,7.6,2,4.6,4.9,8.7,7.7,12.9s5.8,7.9,2.2,11.4c-1.4,1.4-3.2,1.7-4.8,2.7s-2.6,2.8-4.3,3.8a7.2,7.2,0,0,1-5.5,1.1c-1.8-.4-3.6-1.2-5.5-1.3s-2.5.7-4,1.3-5.4-.7-6.7-3a7.6,7.6,0,0,1,.2-7.9,9.9,9.9,0,0,1,3.3-2.8c.5-.3,4-.6,4.1-.8Z"/><path class="cls-1" d="M71.7,17.9c-.8.8-32.3,25.1-32.3,25.1l41.9-24Z"/><path class="cls-1" d="M48.8,44.6c-1.5.1-15.8,7.9-15.8,7.9l24.2-9.4Z"/><path class="cls-1" d="M33,61.7c-6,3.9-20.2,24.2-20.2,24.2L46.2,54.7Z"/><polygon class="cls-1" points="22 90.6 5.2 113.2 38.4 79.6 22 90.6"/><path class="cls-1" d="M21.8,102c-.8.8-5,16.7-5,16.7l12.8-28Z"/><path class="cls-1" d="M21.8,80.8c-2,0-13,18-13,18L30.6,73.6Z"/><path class="cls-1" d="M40,55.6c-1-.1-17.2,10.3-17.2,10.3L51.3,52.5Z"/><path class="cls-1" d="M103.2,17.9C102.6,17.3,88,5.2,88,5.2l15.2,18.5Z"/><polygon class="cls-1" points="95.6 19.1 77.9 5.2 101.2 28.6 95.6 19.1"/><polygon class="cls-1" points="83.3 18.2 46.2 28.6 87.8 25.3 83.3 18.2"/><polygon class="cls-1" points="77.9 22.5 54.1 14.6 77.9 24.6 77.9 22.5"/><path class="cls-1" d="M70,26.7c-.8-.4-31.6,18.6-31.6,18.6L74.1,30.5Z"/><polygon class="cls-1" points="110.6 15.9 91.3 5.2 113.6 21.6 110.6 15.9"/><polygon class="cls-1" points="93.7 15.9 58 13.4 102.4 18.5 93.7 15.9"/><path class="cls-1" d="M140.2,29.7c.6-.2,23.6-2.4,23.6-2.4l-18.8,5Z"/><polygon class="cls-1" points="153.9 33.2 179.3 35.8 148.5 36.1 153.9 33.2"/><polygon class="cls-1" points="169.9 41.5 189.7 44.6 160 43.6 169.9 41.5"/><path class="cls-1" d="M176.9,55.6c1.2.5,8,14.7,8,14.7L171.7,52.5Z"/><polygon class="cls-1" points="124.7 42.7 100.4 55.6 122.9 39.9 124.7 42.7"/><polygon class="cls-1" points="97.7 42.7 83.1 57.6 105.2 41.5 97.7 42.7"/><polygon class="cls-1" points="107.3 43.1 89.7 57.6 121.7 38.7 107.3 43.1"/><polygon class="cls-1" points="136.6 43.9 112.6 51.6 136.6 39 136.6 43.9"/><polygon class="cls-1" points="112.6 43.6 100.4 53.4 112.6 39.9 112.6 43.6"/><polygon class="cls-1" points="18.9 89.9 13.9 97.4 21.8 86.8 18.9 89.9"/><polygon class="cls-1" points="18.3 100.7 16.8 109.4 20.5 97 18.3 100.7"/><path class="cls-1" d="M21.8,99.8c-.3.2-3.9,10.3-3.9,10.3l3.5-13.7Z"/><polygon class="cls-1" points="18.6 88.4 15.5 97.4 19.8 86.8 18.6 88.4"/><polygon class="cls-1" points="27.3 65.1 17.7 74 38.8 58.4 27.3 65.1"/><polygon class="cls-1" points="26.7 69.3 16.2 79 32.6 66.2 26.7 69.3"/><polygon class="cls-1" points="22.4 78.3 13.9 88 25 70.9 22.4 78.3"/></g></svg>