<svg xmlns="http://www.w3.org/2000/svg" viewBox="0 0 189.2 269"><defs><style>.cls-1{fill:#eebc99;}.cls-2{fill:#f8dabc;}.cls-3{fill:#f2da91;}.cls-4{fill:#edbc9b;}</style></defs><title>megan-avatar</title><g id="Megan_Avatar" data-name="Megan Avatar"><path class="cls-1" d="M53.3,255.3c4.7-6.7,8-14.4,8.1-22.6s-2.8-18.1-4-27l89.5-5.4c-3.4.2-1.2,21.8-1.1,24.2a40.2,40.2,0,0,0,16.7,30.8Z"/><path class="cls-2" d="M112.3,48.4H125l13.3,9.2c7.7,5.3,12.1,16.5,17,24.5,5.9,9.6,6,23.9,8,34.8a100.1,100.1,0,0,1,1.1,29.1c-1,10.8-2.9,21.5-4.3,32.3-1.8,13-9.8,23.9-18.6,33-12.4,12.7-30.7,27.1-49.6,23.9-9.4-1.6-16.5-8.3-23.7-14.1s-14.7-12.5-20.6-20.2S38,185.4,37,176.3s-1.6-15.2-2.5-22.8l6.1-55L58.5,73.5,76.8,59.4l13.4-7.8,9.5-2.4Z"/><path class="cls-3" d="M45,236c-3.1-14.4-5.4-29.1-9.3-43.2-2.4-8.7-1.2-17.1-.5-25.9s1-16.3,4-24.3c2-5.4,4-10.8,6-16.2s4.8-10.1,7.5-15.1c5.8-10.6,11.8-21.1,17.8-31.7,2.5-4.5,7-8.5,10.3-12.3s7.1-7.9,10.4-12.1,6.3-4.9,11.1-5.3l11.6-1c3.9-.4,7.9-1.2,11.6.5s6.3,4.7,9.4,6.9a39.4,39.4,0,0,1,7.1,6c2.3,2.7,3.7,6,5.5,8.9,3.4,5.5,7.7,11,9.6,17.2s2,13.1,3.1,19.6,1.7,11.2,2.5,16.8.9,11.6,2.4,17c.1.4,4.7-3.2,4.9-3.3A85.5,85.5,0,0,0,182,127.2c1.2-1.5,2.9-2.9,2.9-4.8a17.9,17.9,0,0,0-.4-2.8c-1.2-7.9-2-15.8-3.7-23.6s-4-16.2-8.2-23l-7-11.5c-2-3.2-3.6-7.4-6.8-9.4,0-.6-4.5-2.8-5.2-3.2l-5.9-3.5c-3.8-2.2-7.7-4.4-11.6-6.5-8.1-4.2-16.3-8.1-24.5-12-5.7-2.8-11.3-2.9-17.6-2.8-11.4.1-22.4,2.7-33.6,4.8-5,1-9.6,3.3-13.9,5.9s-6.5,3.5-9.2,5.9-4.5,5.9-6.4,8.9c-4.3,6.7-8.6,13.4-11.2,21-3.2,9.3-5,19.3-6.9,28.9-2.4,12.3-4.8,24.7-5.8,37.2a116.5,116.5,0,0,0,2.7,37.1c4.5,18.9,11.1,37.5,17.6,55.9l3.1-24.1Z"/><polygon class="cls-3" points="107.7 98.9 107.6 103.1 111.3 103.9 117.9 101.4 123.7 98.9 129.4 98.9 135.3 100.8 139.8 103.9 141.6 103.9 140.3 101.4 136.4 98.9 128.7 96.5 123.9 96.5 114.2 97 107.7 98.9"/><path class="cls-2" d="M175,121.5l3.2,4.2,1.4,7.5v12.9l-1.4,11.1L175,164l-4.4,4.1-4.7,2H163l-3.3-4.1-.8-5.5,1.8-6.1s1.2-3.3,1.4-3.6,1.6-6.6,1.6-6.6l2.7-13.1,2.2-5.3,2.4-2.9,2.6-1.3Z"/><polygon class="cls-3" points="82.8 105 83.6 103 82.8 100.8 80.8 98.7 76.9 97.5 71.9 96.5 65.5 97 58.9 99.3 51.5 107.7 62.9 102.1 66 100.8 68.7 100.2 71.5 100.8 75.5 102.1 78.6 102.9 82.8 105"/><path class="cls-4" d="M86.8,143.9a32.9,32.9,0,0,0-4.9,3.1c-1.3,1.1-2.9,2.7-2.7,4.6s3.3,4.4,5.5,4.8a58.4,58.4,0,0,0,7.3.5c2.6.2,5.3.5,7.9.4s4-.7,6-.9,3.5.1,5.1-.5,2.6-2.5,3-4.2c1.2-4.9-5.3-7.6-8.7-9.1"/><path class="cls-4" d="M85.6,108.5c1.2,3.1,3.6,7.5,4.1,11,1.4,8.9-1,16.1-3.5,24.4-.7,2.3-1.3,5.4.6,7.3a20.2,20.2,0,0,0,3.6,2.9c4.1,2.4,8.3,1.5,12.6.4l2.7-2.6c.8-1.7,2.5-3.8,1.9-5.6s-.8-2.5-1.2-3.5l-1.3-3.9c-.8-2.3-1.3-5.1-2.6-7.2s-1.5-1.9-2.2-2.8l-6.1-8.3C91.7,116.9,88.3,112,85.6,108.5Z"/><polygon class="cls-3" points="7.7 145.8 4.9 168.9 12.6 145.8 7.7 145.8"/><polygon class="cls-3" points="8.8 167.4 8.8 183.4 12.6 162.1 8.8 167.4"/><path class="cls-3" d="M12,115.5c-.9,1.1-7.1,22-7.1,22l15.8-29.8Z"/><polygon class="cls-3" points="16.2 92.8 5.9 113 22.8 85.7 16.2 92.8"/><polygon class="cls-3" points="101.3 25.3 125.7 25.3 101.3 28.4 101.3 25.3"/><polygon class="cls-3" points="95.8 25.3 114.9 18 90.9 31.4 95.8 25.3"/><polygon class="cls-3" points="114.9 30.2 132.8 30.2 107.9 35.2 114.9 30.2"/><polygon class="cls-3" points="105.7 30.2 115.9 20.1 102.9 36.8 105.7 30.2"/><polygon class="cls-3" points="95.8 30.2 110.7 22.5 89.8 39.6 95.8 30.2"/><polygon class="cls-3" points="65.3 31.4 97.7 20.1 62.2 41.8 65.3 31.4"/><path class="cls-3" d="M54.2,36.8l29.4-28-35,39.5Z"/><polygon class="cls-3" points="40.8 41.8 70.9 14.2 37.1 61.8 40.8 41.8"/><polygon class="cls-3" points="63.7 36.8 85.6 18 54 56.6 63.7 36.8"/><polygon class="cls-3" points="137.1 41.8 174.7 52.7 128.6 41.8 137.1 41.8"/><polygon class="cls-3" points="157.5 56.6 189.2 74.6 144.3 56.6 157.5 56.6"/><polygon class="cls-3" points="169.2 70.2 196.1 100.2 158.9 65.6 169.2 70.2"/><polygon class="cls-3" points="177.5 89 190.7 111.6 169.2 85.7 177.5 89"/><polygon class="cls-3" points="180.3 107.7 181.2 109.8 189.2 128.6 173.2 102.1 180.3 107.7"/><polygon class="cls-3" points="173.2 82.9 183.2 92.5 164.9 79.3 173.2 82.9"/></g></svg>