<svg xmlns="http://www.w3.org/2000/svg" viewBox="0 0 611 640"><defs><style>.cls-1{fill:#566d9b;}.cls-2{fill:#001e3a;}.cls-3{fill:#153450;}.cls-4{fill:#032240;}.cls-5{fill:#cba1ce;}.cls-6{fill:#153353;}.cls-7{fill:#0c2142;}.cls-8{fill:#fed1b6;}.cls-9{fill:none;stroke:#000;stroke-linecap:round;stroke-linejoin:round;stroke-width:3px;}.cls-10{fill:#29b397;}.cls-11,.cls-18{fill:#fff;}.cls-12{fill:#213640;}.cls-13{fill:#fde344;}.cls-14{fill:#c7ce32;}.cls-15{fill:#c4bf58;}.cls-16{fill:#26566e;}.cls-17{fill:#6f3b55;}.cls-18{fill-opacity:0.2;}.cls-19{fill:#48271b;}.cls-20{fill:#502f23;}.cls-21{fill:#f79d00;}.cls-22{fill:#f68515;}.cls-23{fill:#fec000;}.cls-24{fill:#062541;}</style></defs><title>welcome-graphic</title><g id="Layer_6" data-name="Layer 6"><polygon class="cls-1" points="596.2 461.6 196.9 217.1 15 326 418.3 570.2 596.2 461.6"/></g><g id="Movie_Screen" data-name="Movie Screen"><polygon class="cls-2" points="103.3 369.7 103.3 223.3 112.5 228.8 112.5 374.5 103.3 369.7"/><polygon class="cls-3" points="272.7 126 280.3 130.7 112.5 228.8 103.3 223.3 272.7 126"/><polygon class="cls-4" points="280.3 264.5 280.3 130.7 112.5 228.9 112.5 362.5 280.3 264.5"/><polygon class="cls-5" points="121 232.5 121 349.8 273 261.5 273 144.8 121 232.5"/><polygon class="cls-6" points="280.8 264.3 311 281.3 143.8 379 111.8 362 280.8 264.3"/><polygon class="cls-2" points="111.8 374.1 143.8 392.9 143.8 379 111.8 361.5 111.8 374.1"/><polygon class="cls-7" points="311 294.5 311 281.3 143.8 379 143.8 392.9 311 294.5"/></g><g id="Ivan"><path class="cls-8" d="M353.8,341.4v-2.8a1.7,1.7,0,0,0-.1-.7c-.1-.2-.4-.4-.6-.5a4,4,0,0,1-1.3-1.4,10.8,10.8,0,0,1-.4-1.1,9.1,9.1,0,0,1-.5-1.8,6,6,0,0,1,.3-1.9l.6-2.8h1.9l10.1,8.1-3.7,3.7H360a12,12,0,0,0-.1,1.3Z"/><polyline class="cls-9" points="364.7 392.6 348.8 383.1 347.7 381 347.7 366.2 349 365.4 364.7 373.4"/><path class="cls-10" d="M338.7,380.8c2.4,1.3,4.5,2.8,6.9,4l3.6,1.9c.9.5,2,1.3,3.1,1.3h1.9a4.2,4.2,0,0,0,2-.9l2-1.1,5-2.9,5.7-3.3h.2v-.2c0-.7-.1-1.3-.1-2v-1.4l-31.8-2.6v6.5Z"/><path class="cls-11" d="M342.8,369.3a1.4,1.4,0,0,0,0,.3,15,15,0,0,0,1.1,2.9,3.5,3.5,0,0,0,.4.8l.5.5a12.6,12.6,0,0,0,4.8,2.6l18.6-27.5c-.5-1.9-.7-4.3-1.9-5.9l-1.3-1.8-.3-.3h-.3c-1-.2-2.6-.8-3.6-.3l-.3.2c-.7.6-.8.9-1.8.9h-2.5l-4.8-.2H351l-.4.3-2,1.9c-1.8,1.7-2.6,4.6-3.7,6.7V356l2.2.5,1.5.6-5.6,11.5A2,2,0,0,0,342.8,369.3Z"/><path class="cls-10" d="M350,381.1a8,8,0,0,1-.1-1.6V369.1c0-1.8.1-3.7,0-5.5s-.4-3.5.2-5.3a10.5,10.5,0,0,1,4.1-5.1l3.6-2.3,4-2.5c1.2-.8,2.3-1.6,3.8-.8s.6,2.2.6,3.1v15.5c0,2.6,0,5.2,0,7.8,0,.4,0,.8,0,1.3a1.2,1.2,0,0,1-.2.8,6.5,6.5,0,0,1-1.2.9l-1.6,1.1-2.5,1.3-4,2.1L354,383h-.2a3.1,3.1,0,0,1-2.8-.2,2.4,2.4,0,0,1-.9-1.1Z"/><path class="cls-10" d="M353.2,382.3a8,8,0,0,1-.1-1.6V370.3c0-1.8.1-3.7,0-5.5s-.4-3.5.2-5.3a10.5,10.5,0,0,1,4.1-5.1l3.6-2.3,4-2.5c1.2-.8,2.3-1.6,3.8-.8s.6,2.2.6,3.1v15.5c0,2.6,0,5.2,0,7.8,0,.4,0,.8,0,1.3a1.2,1.2,0,0,1-.2.8,6.5,6.5,0,0,1-1.2.9l-1.6,1.1-2.5,1.3-4,2.1-2.7,1.4h-.2a3.1,3.1,0,0,1-2.8-.2,2.4,2.4,0,0,1-.9-1.1Z"/><path class="cls-12" d="M320.2,383.7l1.2-.6h.6l4.2.5,2.9,1.3,1.9.9.5.2c.4.4,0,1.7-.1,2.2s-.2,2.2-.2,3.3a.6.6,0,0,1-.1.3c-.2.4-1.3,0-1.7,0a4.6,4.6,0,0,1-1.6-.5l-1.7-.8a16.4,16.4,0,0,1-2.5-2.1l-2.9-2.6-.3-.3A5.6,5.6,0,0,1,320.2,383.7Z"/><polyline class="cls-9" points="350.8 403.7 334.9 394.2 333.8 392.1 333.8 377.3 335.1 376.5 350.8 384.5"/><path d="M325.9,383.7a6.3,6.3,0,0,1,.1-.7l2.4-15.9a1,1,0,0,1,.2-.5l.5-.3a97.4,97.4,0,0,1,9.8-3s0-2.3.1-2.5.3-1.8.9-2.2,3.9.1,5.3.7l-1.6,7.5a10.4,10.4,0,0,0-.3,3.1,5.2,5.2,0,0,0,.8,2.3,7.6,7.6,0,0,0,1.9,1.9,28.1,28.1,0,0,0,3.7,2.2c-2.1-.2-4.2.1-6.3-.3s-4.8-2.3-7.3-3.3a3.7,3.7,0,0,0-1.5-.3,1.5,1.5,0,0,0-1.3.7,2.4,2.4,0,0,0-.2,1l-1.1,9.9a2.8,2.8,0,0,1-.4,1.5,2.7,2.7,0,0,1-2.4.7,5.3,5.3,0,0,1-1.9-.4,2.2,2.2,0,0,1-1.2-1.4A2.2,2.2,0,0,1,325.9,383.7Z"/><path class="cls-8" d="M331.1,361.6h.4c1.1-.1,3.1-.2,4.1.3s1.3,1.4,2.1,1.7,3.5,1.2,4.8.7a5,5,0,0,0,1.4-1l.2-.2a1.1,1.1,0,0,0,.1-.4c.4-2.3.6-4.6.8-7l4.8,2.1v2.8c0,1,.4,3.2-.3,4.1a13.8,13.8,0,0,1-2.3,2.9,7.9,7.9,0,0,1-4.6,1l-3.4-.4a18.5,18.5,0,0,1-5.6-1.8,6.9,6.9,0,0,1-2.6-1.8c-.7-.9-.2-1.6,0-2.7Z"/><polygon class="cls-13" points="350.8 328.3 351.2 325.5 355.5 324.5 359.6 324.5 362.1 325.4 365.6 328.7 365.6 332.4 365 335.5 363.6 336.9 361.5 338.4 359.8 339.3 357.4 339.1 355.7 337.3 353.9 332.5 352.6 329.7 350.8 328.3"/><path class="cls-14" d="M360.4,324.7l-1.4-2.8c-.3-.6-2.1-1.4-2.8-1.8s-3.4-1.9-5-1.1a4.3,4.3,0,0,0-2.1,3.5c0,1.7,1.6,2.9,2.8,4"/><path d="M351.2,326c.6-1.3,1.4-4.1,2.6-4.8a3.6,3.6,0,0,1,1.3-.4c2.2-.4,5.3-.5,7.3.5s7.2,4.8,6.2,7.8c-.1.4-2.5,4.4-2.4,4.5-1.7-.9-4.1-1-5.9-1.6a18.2,18.2,0,0,1-5.1-2.6C354.8,329,350.9,326.5,351.2,326Z"/><ellipse class="cls-15" cx="362.6" cy="321.6" rx="0.3" ry="1.1" transform="translate(-86.6 503.6) rotate(-63.6)"/><ellipse class="cls-15" cx="362.7" cy="321.3" rx="0.3" ry="1.1" transform="translate(-86.3 503.6) rotate(-63.6)"/><ellipse class="cls-15" cx="362.6" cy="321.5" rx="0.3" ry="1.1" transform="translate(-86.4 503.6) rotate(-63.6)"/></g><g id="Megan"><polyline class="cls-9" points="332.3 413 316.4 403.5 315.3 401.3 315.3 386.6 316.7 385.8 332.3 393.8"/><path class="cls-8" d="M317.2,368.5c0-.5.3-3.7.3-4.3v-1.2a1.7,1.7,0,0,0-.1-.7c-.1-.2-.4-.4-.6-.5a4,4,0,0,1-1.3-1.4,10.8,10.8,0,0,1-.4-1.1,9.1,9.1,0,0,1-.5-1.8,6,6,0,0,1,.3-1.9l.6-2.8h1.9l10.1,8.1-3.7,3.7h-.1c-.1.1.3,5.7.3,5.7Z"/><path class="cls-12" d="M286.3,406.4l1.2-.6h.6l4.2.5,2.9,1.3,1.9.9.5.2c.4.4,0,1.7-.1,2.2s-.2,2.2-.2,3.3a.6.6,0,0,1-.1.3c-.2.4-1.3,0-1.7,0a4.6,4.6,0,0,1-1.6-.5l-1.7-.8a16.4,16.4,0,0,1-2.5-2.1l-2.9-2.6-.3-.3A5.6,5.6,0,0,1,286.3,406.4Z"/><path class="cls-10" d="M304.9,403.7c2.4,1.3,4.5,2.8,6.9,4l3.6,1.9c.9.5,2,1.3,3.1,1.3h1.9a4.2,4.2,0,0,0,2-.9l2-1.1,5-2.9,5.7-3.3h.2v-.2c0-.7-.1-1.3-.1-2V399l-31.8-2.6V403Z"/><path class="cls-16" d="M292.1,406.6a6.3,6.3,0,0,1,.1-.7l2.4-15.9a1,1,0,0,1,.2-.5l.5-.3a97.4,97.4,0,0,1,9.8-3s0-2.3.1-2.5.3-1.8.9-2.2,3.9.1,5.3.7l-1.6,7.5a10.4,10.4,0,0,0-.3,3.1,5.2,5.2,0,0,0,.8,2.3,7.6,7.6,0,0,0,1.9,1.9,28.1,28.1,0,0,0,3.7,2.2c-2.1-.2-4.2.1-6.3-.3s-4.8-2.3-7.3-3.3a3.7,3.7,0,0,0-1.5-.3,1.5,1.5,0,0,0-1.3.7,2.4,2.4,0,0,0-.2,1l-1.1,9.9a2.8,2.8,0,0,1-.4,1.5,2.7,2.7,0,0,1-2.4.7,5.3,5.3,0,0,1-1.9-.4,2.2,2.2,0,0,1-1.2-1.4A2.2,2.2,0,0,1,292.1,406.6Z"/><polygon points="311 377.3 312.3 371.5 314.5 368.3 316.7 368.3 318.9 368.9 322.8 368.3 324.7 366.2 327.3 366.2 329.2 367.9 330.4 370.9 330.4 373.9 329.7 395.3 319 401.9 314.5 403.5 311.9 402.8 307.8 401 306.5 395.9 306.5 390.2 307.8 387.5 309.8 386.2 312.4 386.7 313.9 387.5 317.2 388.2 317.5 383.3 317.9 379.3 316.4 379.4 314.3 379 311.8 378.8 311 377.3"/><path class="cls-10" d="M316.2,404a8,8,0,0,1-.1-1.6V392c0-1.8.1-3.7,0-5.5s-.4-3.5.2-5.3a10.5,10.5,0,0,1,4.1-5.1l3.6-2.3,4-2.5c1.2-.8,2.3-1.6,3.8-.8s.6,2.2.6,3.1v15.5c0,2.6,0,5.2,0,7.8,0,.4,0,.8,0,1.3a1.2,1.2,0,0,1-.2.8,6.5,6.5,0,0,1-1.2.9l-1.6,1.1-2.5,1.3-4,2.1-2.7,1.4H320a3.1,3.1,0,0,1-2.8-.2,2.4,2.4,0,0,1-.9-1.1Z"/><path class="cls-10" d="M319.4,405.2a8,8,0,0,1-.1-1.6V393.2c0-1.8.1-3.7,0-5.5s-.4-3.5.2-5.3a10.5,10.5,0,0,1,4.1-5.1l3.6-2.3,4-2.5c1.2-.8,2.3-1.6,3.8-.8s.6,2.2.6,3.1v15.5c0,2.6,0,5.2,0,7.8,0,.4,0,.8,0,1.3a1.2,1.2,0,0,1-.2.8,6.5,6.5,0,0,1-1.2.9l-1.6,1.1-2.5,1.3-4,2.1-2.7,1.4h-.2a3.1,3.1,0,0,1-2.8-.2,2.4,2.4,0,0,1-.9-1.1Z"/><polyline class="cls-9" points="317 426.6 301 417.1 300 415 300 400.2 301.3 399.4 317 407.4"/><path class="cls-8" d="M298.2,383.6h.4c1.1-.1,3.1-.2,4.1.3s1.3,1.4,2.1,1.7,3.5,1.2,4.8.7a5,5,0,0,0,1.4-1l.2-.2a1.1,1.1,0,0,0,.1-.4c.4-2.3.6-4.6.8-7l4.8,2.1v2.8c0,1,.4,3.2-.3,4.1a13.8,13.8,0,0,1-2.3,2.9,7.9,7.9,0,0,1-4.6,1l-3.4-.4a18.5,18.5,0,0,1-5.6-1.8,6.9,6.9,0,0,1-2.6-1.8c-.7-.9-.2-1.6,0-2.7Z"/><polyline class="cls-13" points="315.3 353.4 318.5 348.6 323.8 347.4 325.9 348.6 322.3 348.5 327.5 348.9 325.9 349.5 321.6 349.5 329.3 349.5 330 349.8 330.4 350 332.7 351 333.6 351.9 329.8 350.7 328.5 350.6 330 350.9 334.4 352.6 336.2 354.3 331.9 352.5 335.5 357.8 332.5 355.9 336 358.8 332.5 357 335 360.3 329.3 361.4 327.7 362 326.5 363.6 325.5 365.1 324.7 366.2 323.6 359.8 322.9 363.3 320.5 356.4 321 364.8 319.5 355.7 317.7 359.1 318.2 354.5 314.5 357.6"/></g><g id="Jacob"><polyline class="cls-9" points="294.8 435.1 278.8 425.6 277.8 423.5 277.8 408.7 279.1 407.9 294.8 415.9"/><path class="cls-8" d="M282.8,384.7v-2.8a1.7,1.7,0,0,0-.1-.7c-.1-.2-.4-.4-.6-.5a4,4,0,0,1-1.3-1.4,10.8,10.8,0,0,1-.4-1.1,9.1,9.1,0,0,1-.5-1.8,6,6,0,0,1,.3-1.9l.6-2.8h1.9l10.1,8.1-3.7,3.7H289a12,12,0,0,0-.1,1.3Z"/><path class="cls-10" d="M267.7,424.1c2.4,1.3,4.5,2.8,6.9,4l3.6,1.9c.9.5,2,1.3,3.1,1.3h1.9a4.2,4.2,0,0,0,2-.9l2-1.1,5-2.9,5.7-3.3h.2v-.2c0-.7-.1-1.3-.1-2v-1.4l-31.8-2.6v6.5Z"/><path class="cls-17" d="M271.8,412.6a1.4,1.4,0,0,0,0,.3,15,15,0,0,0,1.1,2.9,3.5,3.5,0,0,0,.4.8l.5.5a12.6,12.6,0,0,0,4.8,2.6l18.6-27.5c-.5-1.9-.7-4.3-1.9-5.9l-1.3-1.8-.3-.3h-.3c-1-.2-2.6-.8-3.6-.3l-.3.2c-.7.6-.8.9-1.8.9h-2.5l-4.8-.2h-.4l-.4.3-2,1.9c-1.8,1.7-2.6,4.6-3.7,6.7v5.6l2.2.5,1.5.6-5.6,11.5A2,2,0,0,0,271.8,412.6Z"/><path class="cls-10" d="M279,424.4a8,8,0,0,1-.1-1.6V412.4c0-1.8.1-3.7,0-5.5s-.4-3.5.2-5.3a10.5,10.5,0,0,1,4.1-5.1l3.6-2.3,4-2.5c1.2-.8,2.3-1.6,3.8-.8s.6,2.2.6,3.1v15.5c0,2.6,0,5.2,0,7.8,0,.4,0,.8,0,1.3a1.2,1.2,0,0,1-.2.8,6.5,6.5,0,0,1-1.2.9l-1.6,1.1-2.5,1.3-4,2.1-2.7,1.4h-.2a3.1,3.1,0,0,1-2.8-.2,2.4,2.4,0,0,1-.9-1.1Z"/><path class="cls-10" d="M282.3,425.6a8,8,0,0,1-.1-1.6V413.6c0-1.8.1-3.7,0-5.5s-.4-3.5.2-5.3a10.5,10.5,0,0,1,4.1-5.1l3.6-2.3,4-2.5c1.2-.8,2.3-1.6,3.8-.8s.6,2.2.6,3.1v15.5c0,2.6,0,5.2,0,7.8,0,.4,0,.8,0,1.3a1.2,1.2,0,0,1-.2.8,6.5,6.5,0,0,1-1.2.9l-1.6,1.1-2.5,1.3-4,2.1-2.7,1.4h-.2a3.1,3.1,0,0,1-2.8-.2,2.4,2.4,0,0,1-.9-1.1Z"/><path class="cls-12" d="M249.1,426.8l1.2-.6h.6l4.2.5,2.9,1.3,1.9.9.5.2c.4.4,0,1.7-.1,2.2s-.2,2.2-.2,3.3a.6.6,0,0,1-.1.3c-.2.4-1.3,0-1.7,0a4.6,4.6,0,0,1-1.6-.5l-1.7-.8a16.4,16.4,0,0,1-2.5-2.1l-2.9-2.6-.3-.3A5.6,5.6,0,0,1,249.1,426.8Z"/><polyline class="cls-9" points="279.8 447 263.9 437.5 262.8 435.3 262.8 420.6 264.1 419.8 279.8 427.8"/><path class="cls-16" d="M255,426.9a6.3,6.3,0,0,1,.1-.7l2.4-15.9a1,1,0,0,1,.2-.5l.5-.3a97.4,97.4,0,0,1,9.8-3s0-2.3.1-2.5.3-1.8.9-2.2,3.9.1,5.3.7l-1.6,7.5a10.4,10.4,0,0,0-.3,3.1,5.2,5.2,0,0,0,.8,2.3,7.6,7.6,0,0,0,1.9,1.9,28.1,28.1,0,0,0,3.7,2.2c-2.1-.2-4.2.1-6.3-.3s-4.8-2.3-7.3-3.3a3.7,3.7,0,0,0-1.5-.3,1.5,1.5,0,0,0-1.3.7,2.4,2.4,0,0,0-.2,1l-1.1,9.9a2.8,2.8,0,0,1-.4,1.5,2.7,2.7,0,0,1-2.4.7,5.3,5.3,0,0,1-1.9-.4,2.2,2.2,0,0,1-1.2-1.4A2.2,2.2,0,0,1,255,426.9Z"/><path class="cls-8" d="M260.2,404.9h.4c1.1-.1,3.1-.2,4.1.3s1.3,1.4,2.1,1.7,3.5,1.2,4.8.7a5,5,0,0,0,1.4-1l.2-.2a1.1,1.1,0,0,0,.1-.4c.4-2.3.6-4.6.8-7l4.8,2.1v2.8c0,1,.4,3.2-.3,4.1a13.8,13.8,0,0,1-2.3,2.9,7.9,7.9,0,0,1-4.6,1l-3.4-.4a18.5,18.5,0,0,1-5.6-1.8,6.9,6.9,0,0,1-2.6-1.8c-.7-.9-.2-1.6,0-2.7Z"/><polygon class="cls-13" points="279.8 371.6 280.3 368.8 284.5 367.7 288.6 367.7 291.1 368.7 294.6 371.9 294.6 375.6 294 378.8 292.6 380.1 290.6 381.7 288.9 382.6 286.4 382.3 284.8 380.6 282.9 375.8 281.6 373 279.8 371.6"/><path class="cls-11" d="M282.1,367.1c2-1.9,3.7-3.9,6.5-4.8l2.6-.9a6.3,6.3,0,0,1,5,.8c1.2.8,3.3,2.9,3.1,4.3a19.2,19.2,0,0,1-1.2,5.7c-.8,1.7-2.6,2.6-4,3.7"/><path class="cls-11" d="M279.7,369.2l1.6-2.3,1-1.4c-.5.8,3.9,4.3,4.5,4.9,2.7,2.5,5.8,3.6,9.2,4.8l-1.2,3.4c-3.6-1.3-8.2-2.3-11-5.1Z"/></g><g id="Projector"><polyline class="cls-18" points="375.4 389.5 273 144.8 121 232.5 121 349.8 357.8 427.4"/><path class="cls-19" d="M385.6,395.5l-7.5-4.2c-5.7-3.2-14.8,2.3-20.4,12.3s-5.6,20.7.1,23.8l7.5,4.2"/><ellipse class="cls-20" cx="375.4" cy="413.5" rx="20.7" ry="11.8" transform="translate(-168.9 538.6) rotate(-60.7)"/><path class="cls-21" d="M373.4,408.9a16,16,0,0,1,2.5-1.7l2.3-1.4,4.5-2.8,8.8-5.5,17.7-10.9c2.4-1.5,5.1-2.9,7.6-4.4l98.2,55.3c3.9,2.2,7.8,4.4,10.7,7.8l-39.4,22.1a3.8,3.8,0,0,1-4.7-.1c-3.1-1.5-6-3.3-9-4.9l-9.1-5-18.3-10-18.3-10-18.3-10-18.3-10-8.1-4.4-4-2.2-2-1.1C375.5,409.7,374,409.4,373.4,408.9Z"/><path class="cls-22" d="M483.5,468.9l42.1-23.5a7.2,7.2,0,0,1,1.7,2.8c.8,2.6.3,5.7.3,8.4v38.6c0,2.6-3.1,3.9-5,5l-5.1,2.8-13.8,7.7-13.6,7.6-7.4,4.1h-.2v-53Z"/><path class="cls-23" d="M376.8,462.9a8.6,8.6,0,0,1-2.3-2.2c-1.3-1.9-1.4-4.4-1.4-6.7q-.1-10.4-.1-20.8t.1-20.8c0-1.1-.2-2.4.4-3.4s3.3-1.1,4.7-.6l1.6.6a5.4,5.4,0,0,1,1.4.7l94.7,53c3.3,1.8,6.8,3.9,8.4,7.3s1.3,5.5,1.3,8.3v38.4c0,1.6-.1,3.4-1.1,4.7s-6.1,1-8.9-.6l-96.6-56.4Z"/><ellipse class="cls-24" cx="420.6" cy="386.3" rx="19.8" ry="34.9" transform="translate(-132.3 243.5) rotate(-28.1)"/><ellipse class="cls-24" cx="426.8" cy="383.1" rx="19.8" ry="34.9" transform="translate(-130.1 246) rotate(-28.1)"/><ellipse class="cls-24" cx="476" cy="418.5" rx="19.8" ry="34.9" transform="translate(-141 273.4) rotate(-28.1)"/><ellipse class="cls-24" cx="482.5" cy="415" rx="19.8" ry="34.9" transform="translate(-138.6 276) rotate(-28.1)"/><ellipse class="cls-11" cx="463.1" cy="410.2" rx="5.8" ry="10.3" transform="translate(-138.6 266.3) rotate(-28.1)"/><ellipse class="cls-11" cx="476.5" cy="403" rx="5.8" ry="10.3" transform="translate(-133.6 271.8) rotate(-28.1)"/><ellipse class="cls-11" cx="489.3" cy="425" rx="5.8" ry="10.3" transform="translate(-142.5 280.4) rotate(-28.1)"/><ellipse class="cls-11" cx="476.5" cy="433" rx="5.8" ry="10.3" transform="translate(-147.8 275.3) rotate(-28.1)"/><ellipse class="cls-11" cx="476.2" cy="417.4" rx="1.7" ry="2.9" transform="translate(-140.4 273.3) rotate(-28.1)"/><ellipse class="cls-11" cx="408.1" cy="377.8" rx="5.8" ry="10.3" transform="translate(-129.8 236.6) rotate(-28.1)"/><ellipse class="cls-11" cx="421.5" cy="370.6" rx="5.8" ry="10.3" transform="translate(-124.8 242.1) rotate(-28.1)"/><ellipse class="cls-11" cx="434.3" cy="392.6" rx="5.8" ry="10.3" transform="translate(-133.7 250.7) rotate(-28.1)"/><ellipse class="cls-11" cx="421.5" cy="400.6" rx="5.8" ry="10.3" transform="translate(-139 245.6) rotate(-28.1)"/><ellipse class="cls-11" cx="421.2" cy="385" rx="1.7" ry="2.9" transform="translate(-131.7 243.6) rotate(-28.1)"/></g></svg>